<svg xmlns="http://www.w3.org/2000/svg" viewBox="-20 -20 363 540" width="363" height="540">
  <defs>
    <pattern id="checker" x="0" y="0" width="20" height="20" patternUnits="userSpaceOnUse">
      <rect width="20" height="20" fill="#e0e0e0"/>
      <rect width="10" height="10" fill="#ffffff"/>
      <rect x="10" y="10" width="10" height="10" fill="#ffffff"/>
    </pattern>

```
<mask id="topMask">
  <rect x="-20" y="-20" width="363" height="540" fill="black"/>
  <path d="M216.43 120.0 C216.43 152.86 192.14 180.71 162.14 180.71 C132.14 180.71 107.86 152.86 107.86 120.0 C107.86 86.43 132.14 59.29 162.14 59.29 C192.14 59.29 216.43 86.43 216.43 120.0 Z" fill="white"/>
</mask>

<mask id="bottomMask">
  <rect x="-20" y="-20" width="363" height="540" fill="black"/>
  <path d="M211.79 384.29 C211.79 417.14 187.5 445.0 157.5 445.0 C127.5 445.0 103.21 417.14 103.21 384.29 C103.21 350.71 127.5 323.57 157.5 323.57 C187.5 323.57 211.79 350.71 211.79 384.29 Z" fill="white"/>
</mask>
```

  </defs>

  <rect x="-20" y="-20" width="363" height="540" fill="url(#checker)"/>
  <rect x="-20" y="-20" width="363" height="540" fill="hsl(120, 55%, 35%)" mask="url(#topMask)"/>
  <rect x="-20" y="-20" width="363" height="540" fill="hsl(200, 55%, 35%)" mask="url(#bottomMask)"/>

<path fill-rule="evenodd" fill="#1c1c1e" d="
M322.86 385.0 C322.86 308.57 232.86 267.86 154.29 267.86 C149.29 267.86 142.86 267.86 135.71 268.57 C114.29 268.57 80.0 253.57 80.0 242.14 C80.0 232.14 94.29 228.57 102.14 228.57 L104.29 228.57 C116.43 239.29 151.43 243.57 162.14 243.57 C227.86 243.57 281.43 190.0 281.43 121.43 C281.43 97.86 274.29 76.43 260.71 59.29 L306.43 59.29 L306.43 9.29 L211.43 9.29 C197.14 3.57 177.14 0.0 165.71 0.0 C100.0 0.71 44.29 55.71 42.86 121.43 C42.86 148.57 52.14 176.43 69.29 195.71 C54.29 201.43 25.71 215.71 25.71 243.57 C25.71 265.0 35.71 282.86 60.0 293.57 C21.43 314.29 0.0 347.86 0.0 384.29 C0.0 442.86 60.71 500.0 154.29 500.0 C247.14 500.0 322.86 443.57 322.86 385.0 Z
M216.43 120.0 C216.43 152.86 192.14 180.71 162.14 180.71 C132.14 180.71 107.86 152.86 107.86 120.0 C107.86 86.43 132.14 59.29 162.14 59.29 C192.14 59.29 216.43 86.43 216.43 120.0 Z
M211.79 384.29 C211.79 417.14 187.5 445.0 157.5 445.0 C127.5 445.0 103.21 417.14 103.21 384.29 C103.21 350.71 127.5 323.57 157.5 323.57 C187.5 323.57 211.79 350.71 211.79 384.29 Z
"/>
</svg>